<?xml version="1.0" encoding="utf-8"?>
<!-- Generator: Adobe Illustrator 18.1.1, SVG Export Plug-In . SVG Version: 6.00 Build 0)  -->
<svg version="1.1" id="Layer_1" xmlns="http://www.w3.org/2000/svg" xmlns:xlink="http://www.w3.org/1999/xlink" x="0px" y="0px"
	 viewBox="0 0 341.9 335.7" enable-background="new 0 0 341.9 335.7" xml:space="preserve">
<g>
	<path fill="#FFFFFF" d="M86.2,146.4c50.4-9.1,82.8,12.4,83.1,12.6c0,0,0,0,0,0s0,0,0,0c0,0,0,0,0,0s0,0,0,0
		c0.3-0.2,32.7-21.7,83.1-12.6c50.6,9.2,86.2-24.2,86.2-24.2c-53.2,24.5-78.7,12.6-115,14c-36.1,1.3-54,22.6-54.3,22.8
		c-0.2-0.3-18.2-21.5-54.3-22.8c-36.3-1.4-61.8,10.5-115-14C0,122.2,35.5,155.6,86.2,146.4z"/>
	<path fill="#FFFFFF" d="M88.7,161.7c44.9-10.9,75.2,6.9,75.2,6.9S146.6,150.3,114,151c-32.6,0.7-54.8,12.7-103.8-6.4
		C10.2,144.6,43.8,172.6,88.7,161.7z"/>
	<path fill="#FFFFFF" d="M223.5,151c-32.6-0.7-49.9,17.6-49.9,17.6s30.3-17.8,75.2-6.9c44.9,10.9,78.5-17.1,78.5-17.1
		C278.3,163.7,256.1,151.7,223.5,151z"/>
	<path fill="#FFFFFF" d="M213.4,165.9c-19.5-3.3-31.5,6.2-31.5,6.2s19.7-8.1,45.8,2.4s48.7-3.4,48.7-3.4
		C245.3,178.3,233,169.1,213.4,165.9z"/>
	<path fill="#FFFFFF" d="M154.4,172.1c0,0-12-9.5-31.5-6.2c-19.5,3.3-31.8,12.4-63,5.2c0,0,22.7,13.9,48.7,3.4
		S154.4,172.1,154.4,172.1z"/>
	<path fill="#FFFFFF" d="M181.3,179.9c-4.2,1.7-8.1,2.8-11.9,3.7c-3.8-0.8-7.8-2-11.9-3.7c-26-10.5-48.7,3.4-48.7,3.4
		c23-5.3,35.7-1.7,48.7,1.9c3.9,1.1,7.8,2.1,11.9,2.9c4.2-0.8,8.1-1.9,11.9-2.9c13-3.6,25.7-7.2,48.7-1.9
		C230,183.3,207.3,169.4,181.3,179.9z"/>
</g>
<g>
	<path fill="#FFFFFF" d="M47.1,257.6c-1,0-1.9-0.3-2.6-0.8c-0.8-0.5-1.4-1.2-1.8-2l-4.3-9.6H15.7l-4.4,9.6c-0.4,0.8-1,1.5-1.8,2
		c-0.8,0.5-1.7,0.8-2.6,0.8c-1.4,0-2.6-0.5-3.5-1.5c-1-1-1.4-2.1-1.4-3.5c0-0.6,0.1-1.2,0.4-1.9l20.1-43.9c0.4-0.8,1-1.5,1.7-2
		c0.8-0.6,1.6-0.8,2.6-0.8c1,0,1.8,0.2,2.7,0.7c0.8,0.5,1.5,1.2,1.9,2.1l20,43.9c0.3,0.7,0.4,1.3,0.4,2c0,1.3-0.5,2.5-1.4,3.4
		C49.5,257.1,48.4,257.6,47.1,257.6z M26.9,220l-7.3,16.4h14.7L26.9,220z"/>
	<path fill="#FFFFFF" d="M95.5,254.2l4,7.6c0.6,1.2,0.7,2.4,0.3,3.7c-0.4,1.3-1.2,2.2-2.4,2.8c-1.2,0.6-2.5,0.7-3.7,0.3
		c-1.2-0.4-2.2-1.2-2.8-2.4l-4.5-8.6c-0.8,0.1-1.6,0.2-2.3,0.3c-0.8,0.1-1.6,0.1-2.3,0.1c-3.8,0-7.3-0.7-10.6-2.1
		c-3.2-1.4-6.1-3.3-8.5-5.8c-2.4-2.5-4.3-5.3-5.7-8.6c-1.4-3.3-2.1-6.8-2.1-10.6c0-3.7,0.7-7.3,2.1-10.6c1.4-3.3,3.3-6.2,5.7-8.6
		c2.4-2.4,5.3-4.4,8.5-5.8c3.2-1.4,6.8-2.1,10.6-2.1c3.7,0,7.3,0.7,10.5,2.1c3.3,1.4,6.1,3.4,8.5,5.8c2.4,2.4,4.3,5.3,5.7,8.6
		c1.4,3.3,2.1,6.8,2.1,10.6c0,5-1.2,9.6-3.5,13.7C102.6,248.7,99.5,251.9,95.5,254.2z M81.8,213.5c-2.5,0-4.7,0.5-6.7,1.4
		c-2,0.9-3.7,2.2-5.2,3.7c-1.5,1.6-2.6,3.4-3.3,5.5c-0.8,2.1-1.2,4.4-1.2,6.8c0,2.4,0.4,4.7,1.2,6.8c0.8,2.1,1.9,4,3.3,5.5
		c1.4,1.6,3.2,2.8,5.1,3.7c2,0.9,4.2,1.4,6.6,1.4l-2.6-4.9c-0.6-1.2-0.7-2.4-0.3-3.7c0.4-1.3,1.2-2.2,2.3-2.9
		c1.2-0.6,2.4-0.7,3.7-0.3c1.3,0.4,2.2,1.2,2.9,2.4l3.4,6.5c2.2-1.6,3.9-3.6,5.2-6.2c1.3-2.5,1.9-5.4,1.9-8.4c0-2.4-0.4-4.7-1.2-6.8
		c-0.8-2.1-1.9-4-3.3-5.5c-1.4-1.6-3.1-2.8-5.1-3.7C86.4,213.9,84.2,213.5,81.8,213.5z"/>
	<path fill="#FFFFFF" d="M140.4,258c-3.4,0-6.5-0.5-9.3-1.6c-2.8-1.1-5.2-2.6-7.2-4.5c-2-2-3.5-4.3-4.6-7c-1.1-2.7-1.6-5.8-1.6-9.2
		v-26.3c0-1.5,0.5-2.7,1.5-3.7c1-1,2.2-1.6,3.7-1.6c1.5,0,2.7,0.5,3.7,1.6c1,1,1.6,2.3,1.6,3.7V237c0,3.5,1,6.3,3.1,8.4
		c2.1,2.1,5.1,3.2,9.1,3.2c3.9,0,6.9-1.1,9.1-3.2c2.1-2.1,3.2-4.9,3.2-8.4v-27.7c0-1.5,0.5-2.7,1.5-3.7c1-1,2.2-1.6,3.7-1.6
		c1.5,0,2.7,0.5,3.7,1.6c1,1,1.6,2.3,1.6,3.7v26.3c0,3.4-0.5,6.5-1.6,9.2c-1.1,2.7-2.6,5.1-4.6,7c-2,2-4.4,3.5-7.2,4.5
		C146.9,257.5,143.8,258,140.4,258z"/>
	<path fill="#FFFFFF" d="M214.3,257.6c-1,0-1.9-0.3-2.6-0.8c-0.8-0.5-1.4-1.2-1.8-2l-4.3-9.6h-22.7l-4.4,9.6c-0.4,0.8-1,1.5-1.8,2
		c-0.8,0.5-1.7,0.8-2.6,0.8c-1.4,0-2.6-0.5-3.5-1.5c-1-1-1.4-2.1-1.4-3.5c0-0.6,0.1-1.2,0.4-1.9l20.1-43.9c0.4-0.8,1-1.5,1.7-2
		c0.8-0.6,1.6-0.8,2.6-0.8c1,0,1.8,0.2,2.7,0.7c0.8,0.5,1.5,1.2,1.9,2.1l20,43.9c0.3,0.7,0.4,1.3,0.4,2c0,1.3-0.5,2.5-1.4,3.4
		C216.7,257.1,215.6,257.6,214.3,257.6z M194.2,220l-7.3,16.4h14.7L194.2,220z"/>
	<path fill="#FFFFFF" d="M262.7,214.5h-14.4v37.8c0,1.5-0.5,2.7-1.5,3.7c-1,1-2.3,1.5-3.7,1.5c-1.5,0-2.7-0.5-3.7-1.5
		c-1-1-1.5-2.2-1.5-3.7v-37.8h-14.4c-1.3,0-2.5-0.5-3.4-1.4c-1-1-1.4-2.1-1.4-3.4c0-1.4,0.5-2.6,1.4-3.5c0.9-1,2.1-1.4,3.5-1.4h39.4
		c1.3,0,2.4,0.5,3.4,1.4c1,1,1.5,2.1,1.5,3.5c0,1.3-0.5,2.5-1.5,3.4C265.2,214.1,264,214.5,262.7,214.5z"/>
	<path fill="#FFFFFF" d="M280.2,257.6c-1.5,0-2.7-0.5-3.7-1.5c-1-1-1.6-2.2-1.6-3.7v-43.1c0-1.5,0.5-2.7,1.6-3.7
		c1-1,2.3-1.6,3.7-1.6c1.5,0,2.7,0.5,3.7,1.6c1,1,1.5,2.3,1.5,3.7v43.1c0,1.5-0.5,2.7-1.5,3.7C282.9,257.1,281.6,257.6,280.2,257.6z
		"/>
	<path fill="#FFFFFF" d="M340.8,248.6c-2.5,3-5.6,5.3-9.2,7c-3.6,1.6-7.3,2.4-11.2,2.4c-3.7,0-7.3-0.7-10.5-2.1
		c-3.3-1.4-6.1-3.4-8.5-5.8c-2.4-2.5-4.3-5.3-5.7-8.6c-1.4-3.3-2.1-6.8-2.1-10.6c0-3.7,0.7-7.3,2.1-10.5c1.4-3.3,3.3-6.1,5.7-8.6
		c2.4-2.4,5.2-4.4,8.5-5.8c3.3-1.4,6.8-2.1,10.5-2.1c3.1,0,6.3,0.5,9.4,1.5c3.1,1,5.8,2.6,8.1,5c0.5,0.6,0.9,1.1,1.2,1.7
		c0.3,0.6,0.5,1.3,0.5,2.1c0,1.3-0.5,2.5-1.5,3.4c-1,0.9-2.1,1.3-3.4,1.3c-0.9,0-1.8-0.3-2.6-0.8c-0.9-0.6-1.8-1.2-2.9-1.8
		c-1.1-0.6-2.3-1.2-3.7-1.8c-1.4-0.6-3.1-0.8-5-0.8c-2.5,0-4.7,0.5-6.7,1.4c-2,0.9-3.7,2.2-5.2,3.7c-1.4,1.6-2.5,3.4-3.3,5.5
		c-0.8,2.1-1.1,4.4-1.1,6.7c0,2.4,0.4,4.6,1.1,6.7c0.8,2.1,1.8,4,3.3,5.6c1.4,1.6,3.1,2.9,5.2,3.8c2,1,4.3,1.4,6.7,1.4
		c2.5,0,4.5-0.4,6.1-1.2c1.6-0.8,3-1.7,4.2-2.7c1.1-1,2.2-1.9,3.1-2.7c0.9-0.8,1.9-1.2,2.9-1.2c0.7,0,1.3,0.2,1.9,0.5
		c0.6,0.3,1.2,0.7,1.7,1.2c0.5,0.5,0.9,1,1.2,1.6c0.3,0.6,0.4,1.3,0.4,1.9c0,0.6-0.1,1.1-0.3,1.6
		C341.4,247.7,341.1,248.2,340.8,248.6z"/>
</g>
<g>
	<path fill="#FFFFFF" d="M25.3,334.6H10c-1.6,0-3-0.6-4.1-1.7c-1.1-1.1-1.7-2.5-1.7-4.1v-45.6c0-1.6,0.6-2.9,1.7-4
		c1.1-1.1,2.5-1.6,4.1-1.6h15.2c4.3,0,8.3,0.7,11.8,2.2c3.5,1.5,6.6,3.5,9.1,6c2.5,2.6,4.4,5.6,5.8,9c1.3,3.5,2,7.2,2,11.2
		c0,4-0.7,7.8-2,11.3c-1.3,3.5-3.3,6.5-5.8,9.1c-2.5,2.6-5.5,4.6-9.1,6C33.6,333.8,29.6,334.6,25.3,334.6z M24.6,288h-8.9v36h8.9
		c2.8,0,5.3-0.4,7.6-1.3c2.2-0.9,4.1-2.1,5.7-3.7c1.5-1.6,2.7-3.5,3.5-5.7c0.8-2.2,1.2-4.6,1.2-7.3c0-5.4-1.5-9.7-4.6-13
		C34.8,289.7,30.4,288,24.6,288z"/>
	<path fill="#FFFFFF" d="M101.2,309.6c0.4,0.8,1.1,2.2,2.2,4.1c1,2,2,4,3.1,6.1c1.1,2.1,2,4.2,2.8,6c0.8,1.9,1.2,3.2,1.2,3.8
		c0,1.5-0.5,2.8-1.6,3.9c-1.1,1.1-2.4,1.6-3.9,1.6c-1,0-2-0.3-2.9-0.8s-1.6-1.3-2.1-2.2c-0.1-0.3-0.5-1-1-2.1
		c-0.6-1.1-1.2-2.4-2-3.9c-0.8-1.5-1.6-3.1-2.4-4.8c-0.8-1.7-1.6-3.2-2.3-4.7c-0.7-1.4-1.3-2.6-1.8-3.6c-0.5-1-0.7-1.5-0.7-1.6H74.2
		v18.1c0,1.6-0.6,2.9-1.7,4c-1.1,1.1-2.5,1.6-4.1,1.6c-1.6,0-2.9-0.5-4-1.6c-1.1-1.1-1.6-2.4-1.6-4v-46.5c0-1.6,0.5-2.9,1.7-4
		c1.1-1.1,2.4-1.6,4-1.6h21.3c2.8,0,5.5,0.3,8,0.9c2.5,0.6,4.8,1.6,6.7,2.9c1.9,1.3,3.4,3.1,4.5,5.3c1.1,2.2,1.7,4.9,1.7,8
		c0,3.4-0.8,6.4-2.3,9C106.7,306.2,104.4,308.2,101.2,309.6z M91.3,288H74.2v13.7h17.1c2.1,0,4-0.6,5.5-1.7c1.5-1.1,2.3-2.8,2.3-5.1
		c0-2.3-0.8-4.1-2.3-5.2C95.3,288.6,93.4,288,91.3,288z"/>
	<path fill="#FFFFFF" d="M148.1,335.7c-4.2,0-8-0.8-11.6-2.3c-3.5-1.6-6.7-3.7-9.3-6.3c-2.7-2.7-4.7-5.8-6.2-9.4
		c-1.5-3.6-2.2-7.5-2.2-11.6c0-4.1,0.7-7.9,2.2-11.5c1.5-3.6,3.6-6.7,6.2-9.4c2.7-2.7,5.8-4.7,9.3-6.3c3.5-1.5,7.4-2.3,11.6-2.3
		c4.1,0,7.9,0.8,11.5,2.3c3.6,1.5,6.7,3.6,9.3,6.3c2.6,2.7,4.7,5.8,6.2,9.4c1.5,3.6,2.2,7.5,2.2,11.5c0,4.2-0.7,8-2.2,11.6
		c-1.5,3.6-3.6,6.7-6.2,9.4c-2.6,2.7-5.7,4.8-9.3,6.3C156.1,334.9,152.2,335.7,148.1,335.7z M148.1,287c-2.7,0-5.1,0.5-7.3,1.5
		c-2.2,1-4.1,2.3-5.6,4c-1.6,1.7-2.8,3.7-3.6,6c-0.9,2.3-1.3,4.8-1.3,7.4c0,2.6,0.4,5.1,1.3,7.4c0.9,2.3,2.1,4.4,3.6,6.1
		c1.6,1.7,3.4,3.1,5.6,4.1c2.2,1,4.6,1.5,7.3,1.5c2.7,0,5.1-0.5,7.3-1.5c2.2-1,4.1-2.4,5.6-4.1c1.6-1.7,2.8-3.8,3.6-6.1
		c0.9-2.3,1.3-4.8,1.3-7.4c0-2.6-0.4-5.1-1.3-7.4c-0.9-2.3-2.1-4.3-3.6-6c-1.6-1.7-3.4-3.1-5.6-4C153.2,287.5,150.8,287,148.1,287z"
		/>
	<path fill="#FFFFFF" d="M228.8,335.2c-1.8,0-3.1-0.6-4.1-1.9l-27.9-36.5v33.1c0,1.5-0.5,2.8-1.6,3.8c-1.1,1-2.3,1.5-3.8,1.5
		s-2.7-0.5-3.8-1.6c-1-1-1.6-2.3-1.6-3.8v-47.8c0-1.3,0.5-2.6,1.5-3.7c1-1.1,2.4-1.7,4.1-1.7c0.7,0,1.5,0.2,2.2,0.6
		c0.7,0.4,1.3,0.9,1.7,1.4c1.3,1.7,2.7,3.5,4.2,5.5c1.5,2,3.1,3.9,4.6,6c1.6,2,3.1,4,4.7,6.1c1.6,2,3,4,4.4,5.8
		c3.4,4.3,6.7,8.7,10.1,13.1v-33.1c0-1.4,0.5-2.7,1.6-3.8c1-1.1,2.3-1.6,3.8-1.6c1.4,0,2.7,0.5,3.8,1.6c1.1,1.1,1.6,2.4,1.6,3.8
		v47.8c0,1.5-0.5,2.7-1.6,3.8C231.5,334.7,230.2,335.2,228.8,335.2z"/>
	<path fill="#FFFFFF" d="M282.9,334.6h-32.5c-1.6,0-3-0.6-4.1-1.7c-1.1-1.1-1.7-2.5-1.7-4.1v-45.6c0-1.6,0.6-2.9,1.7-4
		c1.1-1.1,2.5-1.6,4.1-1.6h31.2c1.5,0,2.7,0.5,3.8,1.6c1.1,1,1.6,2.3,1.6,3.8c0,1.5-0.5,2.8-1.6,3.8c-1.1,1-2.3,1.6-3.8,1.6h-25.5
		v12.4h14.1c1.5,0,2.7,0.5,3.8,1.5c1,1,1.6,2.3,1.6,3.7c0,1.5-0.5,2.8-1.6,3.8c-1,1-2.3,1.5-3.8,1.5h-14.1v12.7h26.8
		c1.5,0,2.7,0.5,3.8,1.6c1.1,1.1,1.6,2.3,1.6,3.8c0,1.5-0.5,2.8-1.6,3.8C285.6,334.1,284.3,334.6,282.9,334.6z"/>
	<path fill="#FFFFFF" d="M318,335.7c-1.5,0-3.6-0.2-6.3-0.6c-2.7-0.4-5.5-1-8.2-1.8c-2.7-0.8-5.1-1.9-7.2-3.3c-2-1.3-3.1-3-3.1-4.9
		c0-1.4,0.5-2.6,1.6-3.7c1-1.1,2.3-1.6,3.7-1.6c0.5,0,0.9,0.1,1.3,0.2c0.4,0.1,0.8,0.3,1.2,0.5c2.9,1.6,5.6,2.8,8.2,3.5
		c2.6,0.8,5.6,1.1,9,1.1c1,0,2.2-0.1,3.6-0.2c1.4-0.1,2.7-0.4,4-0.9c1.3-0.5,2.4-1.1,3.3-1.9c0.9-0.8,1.4-1.9,1.4-3.3
		c0-1.8-0.8-3.2-2.5-4.2c-1.7-1-3.8-1.9-6.3-2.7c-2.5-0.8-5.3-1.6-8.2-2.4c-2.9-0.8-5.7-1.9-8.2-3.3c-2.5-1.4-4.6-3.2-6.3-5.5
		c-1.7-2.2-2.5-5.1-2.5-8.8c0-3.2,0.7-5.8,2.2-7.8c1.4-2,3.3-3.6,5.5-4.8c2.2-1.2,4.7-2,7.4-2.4c2.7-0.4,5.4-0.6,8-0.6
		c1.3,0,2.9,0.1,4.5,0.2c1.7,0.2,3.4,0.4,5.1,0.6c1.7,0.3,3.4,0.6,4.9,1.1c1.6,0.5,3,1,4.1,1.5c1,0.5,1.9,1.1,2.5,1.9
		c0.6,0.8,0.9,1.7,0.9,2.8c0,1.5-0.5,2.7-1.6,3.8c-1.1,1.1-2.3,1.6-3.8,1.6c-0.3,0-0.6,0-1-0.1c-0.4-0.1-0.7-0.2-1-0.3
		c-2.4-0.9-4.7-1.5-7.1-2c-2.3-0.5-4.8-0.7-7.4-0.7c-0.9,0-2,0-3.4,0.1c-1.3,0.1-2.6,0.3-3.9,0.6c-1.2,0.3-2.3,0.9-3.2,1.6
		c-0.9,0.7-1.3,1.7-1.3,3c0,1.3,0.7,2.6,2.2,3.6c1.5,1.1,3.2,2,5.2,2.7c2,0.8,3.9,1.4,5.9,2c2,0.5,3.4,0.9,4.3,1.2
		c2.2,0.7,4.3,1.4,6.3,2.2c2,0.8,3.8,1.9,5.3,3.1c1.5,1.3,2.7,2.8,3.6,4.6c0.9,1.8,1.4,4,1.4,6.6c0,3.4-0.7,6.2-2.2,8.4
		c-1.4,2.2-3.3,4-5.6,5.3c-2.3,1.3-4.9,2.2-7.7,2.8C323.6,335.4,320.8,335.7,318,335.7z"/>
</g>
<path fill="#FFFFFF" d="M167.5,114.7c0-1,0-2,0-3.1c0-0.2,0-0.3,0-0.5c-16.8-0.8-30.3-14.7-30.3-31.7c0-17.5,14.2-31.7,31.7-31.7
	s31.7,14.2,31.7,31.7c0,16.8-13.1,30.5-29.6,31.6c0,0.2,0,0.4,0,0.5c0,1.1,0,2.1,0,3.1c0,0.5,0,0.9,0,1.3c0,0.9,0,1.8,0,2.7
	c20.7-1.1,37.2-18.3,37.2-39.2c0-21.7-17.6-39.3-39.3-39.3s-39.3,17.6-39.3,39.3c0,21.2,16.8,38.5,37.8,39.2c0-0.8,0-1.7,0-2.7
	C167.5,115.6,167.5,115.1,167.5,114.7z"/>
<path fill="#FFFFFF" d="M224.3,22.1c-31.1-29.6-79.7-29.5-110.5,0.3c-30.3,29.4-31.8,77.8-4,109.8c7.2,8.3,15,10.4,25.7,7.5
	c-2.9-4.8-5.5-8.6-9.3-14.9c0.6,0,1.3,0,1.9,0c0.7,0,1.3,0,2,0c3.5,0,6.9,0,10.2,0c0.8,0,1.5,0,2.3,0c-15.7-9.1-26.3-26-26.3-45.4
	c0-28.9,23.5-52.5,52.5-52.5s52.5,23.5,52.5,52.5c0,19.4-10.6,36.4-26.3,45.4c0.1,0,0.2,0,0.3,0c0.9,0,1.7,0,2.6,0
	c3.3,0,6.7,0,10.2,0c0.7,0,1.3,0,2,0c0.6,0,1.2,0,1.9,0c-3.7,6-6.3,10.1-9.4,15.1c11.2,2.6,19,0.3,26.3-8.1
	C256.6,99.7,254.9,51.3,224.3,22.1z"/>
<path fill="#FFFFFF" d="M167.5,106.2c0-0.7,0-1.4,0-2.1c0-0.4,0-0.9,0-1.3c0-7.3,0-14.8,0-19.5c-2-0.7-3.4-2.6-3.4-4.8
	c0-2.8,2.3-5.1,5.1-5.1c2.8,0,5.1,2.3,5.1,5.1c0,2.2-1.4,4-3.3,4.8c0,4.7,0,12.2,0,19.5c0,0.4,0,0.9,0,1.3c0,0.7,0,1.4,0,2.1
	c0,0.5,0,0.9,0,1.4c0,0.4,0,0.8,0,1.2c15.3-1.1,27.4-13.8,27.4-29.4c0-16.3-13.2-29.5-29.5-29.5c-16.3,0-29.5,13.2-29.5,29.5
	c0,15.8,12.4,28.7,28,29.4c0-0.4,0-0.9,0-1.3C167.5,107.1,167.5,106.7,167.5,106.2z"/>
<path fill="#FFFFFF" d="M156.5,124.8c3.7,0,7.4,0,10.9,0c0-0.1,0-1.2,0-2.9c0-0.3,0-0.7,0-1.1c-22.2-0.8-40.1-19.1-40.1-41.5
	c0-22.9,18.6-41.5,41.5-41.5c22.9,0,41.5,18.6,41.5,41.5c0,22.2-17.5,40.4-39.4,41.5c0,0.4,0,0.8,0,1.1c0,1.7,0,2.7,0,2.9
	c3.7,0,7.3,0,10.9,0c1.5,0,2.9,0,4.4,0c0.4,0,0.9,0,1.3,0c17.8-7.4,30.4-25,30.4-45.4c0-27.1-22-49.1-49.1-49.1s-49.1,22-49.1,49.1
	c0,20.5,12.6,38.1,30.4,45.4c0.6,0,1.3,0,1.9,0C153.6,124.8,155.1,124.8,156.5,124.8z"/>
</svg>
